<svg width="44" height="48" viewBox="0 0 44 48" fill="none" xmlns="http://www.w3.org/2000/svg">
<g clip-path="url(#clip0_129_785)">
<path fill-rule="evenodd" clip-rule="evenodd" d="M12.9415 36.9303C2.44113 29.8508 10.7244 9.38949 16.1786 0.0437012C14.9724 4.42453 13.518 15.3036 12.9415 20.1955C11.1103 31.8857 17.9843 34.7279 21.7285 34.6972V34.696C21.7421 34.6963 21.7557 34.6965 21.7693 34.6967C21.783 34.6965 21.7966 34.6963 21.8101 34.696V34.6972C25.5543 34.7279 32.4284 31.8857 30.5971 20.1955C30.0206 15.3036 28.5662 4.42453 27.3601 0.0437012C32.8143 9.38949 41.0975 29.8508 30.5971 36.9303C29.4222 37.9895 26.0292 40.101 21.8101 40.128V40.1283C21.7965 40.1283 21.7829 40.1282 21.7693 40.1282C21.7557 40.1282 21.7421 40.1283 21.7285 40.1283V40.128C17.5094 40.101 14.1164 37.9895 12.9415 36.9303ZM7.87407 5.65115C1.93211 12.8211 -6.38663 30.2889 7.87407 42.8006C9.89163 44.4883 15.4953 47.8575 21.8168 47.8822V47.9261C28.1667 47.9261 33.8042 44.5383 35.8291 42.8444C50.0898 30.3327 41.7711 12.8649 35.8291 5.69498C39.483 19.4333 38.5932 27.9496 37.6915 30.4905C34.8695 40.1787 26.0259 42.4105 21.8865 42.3204V42.2749C17.7774 42.3917 8.84962 40.1896 6.01167 30.4466C5.11002 27.9058 4.22021 19.3894 7.87407 5.65115Z" fill="url(#paint0_linear_129_785)"/>
</g>
<defs>
<linearGradient id="paint0_linear_129_785" x1="0.717754" y1="0.0436743" x2="45.3625" y2="0.232873" gradientUnits="userSpaceOnUse">
<stop stop-color="white"/>
<stop offset="1" stop-color="white" stop-opacity="0.42"/>
</linearGradient>
<clipPath id="clip0_129_785">
<rect width="43.7222" height="47.9262" fill="white"/>
</clipPath>
</defs>
</svg>
