<svg width="109" height="97" viewBox="0 0 109 97" fill="none" xmlns="http://www.w3.org/2000/svg">
<path d="M107.06 43.258L85.0431 5.20825C84.1683 3.69601 82.91 2.44022 81.3947 1.5671C79.8794 0.693975 78.1604 0.234292 76.4107 0.234253H32.3784C30.6287 0.234479 28.9098 0.694239 27.3945 1.56734C25.8792 2.44044 24.6208 3.69613 23.7458 5.20825L1.73005 43.258C0.855442 44.7706 0.39502 46.4862 0.39502 48.2325C0.39502 49.9788 0.855442 51.6944 1.73005 53.2069L23.7458 91.26C24.6208 92.7722 25.8791 94.0279 27.3945 94.901C28.9098 95.7742 30.6287 96.234 32.3784 96.2343H76.4104C78.1602 96.2342 79.8792 95.7745 81.3945 94.9014C82.9098 94.0282 84.1681 92.7723 85.0428 91.26L107.06 53.2069C107.935 51.6943 108.395 49.9788 108.395 48.2325C108.395 46.4862 107.935 44.7706 107.06 43.258Z" fill="#55C2FF"/>
</svg>
