<svg width="24" height="24" viewBox="0 0 24 24" fill="none" xmlns="http://www.w3.org/2000/svg">
<path d="M2.63105 23.3852C2.05453 23.4188 1.48752 23.2271 1.04959 22.8506C0.185945 21.9819 0.185945 20.5787 1.04959 19.7099L19.9605 0.798932C20.8588 -0.0416048 22.2683 0.00512014 23.1089 0.903385C23.8689 1.71568 23.9132 2.9642 23.2126 3.82828L4.19021 22.8506C3.75797 23.2217 3.20001 23.413 2.63105 23.3852Z" fill="white"/>
<path d="M21.52 23.3852C20.9357 23.3827 20.3757 23.1507 19.9608 22.7393L1.04976 3.82817C0.249639 2.89381 0.35842 1.48766 1.29277 0.687469C2.12671 -0.0266825 3.3566 -0.0266825 4.19046 0.687469L23.2128 19.5985C24.1109 20.4392 24.1573 21.8488 23.3165 22.7469C23.2831 22.7826 23.2485 22.8172 23.2128 22.8506C22.9824 23.051 22.7132 23.2019 22.422 23.2938C22.1308 23.3858 21.8237 23.4169 21.52 23.3852Z" fill="white"/>
</svg>
