<svg width="19" height="17" viewBox="0 0 19 17" fill="none" xmlns="http://www.w3.org/2000/svg">
<path d="M12.1376 8.50409C12.1376 10.1541 10.8042 11.4874 9.15423 11.4874C7.50423 11.4874 6.1709 10.1541 6.1709 8.50409C6.1709 6.85409 7.50423 5.52075 9.15423 5.52075C10.8042 5.52075 12.1376 6.85409 12.1376 8.50409Z" stroke="#858585" stroke-width="1.5" stroke-linecap="round" stroke-linejoin="round"/>
<path d="M9.15417 15.3958C12.0958 15.3958 14.8375 13.6625 16.7458 10.6625C17.4958 9.48746 17.4958 7.51246 16.7458 6.33746C14.8375 3.33746 12.0958 1.60413 9.15417 1.60413C6.2125 1.60413 3.47083 3.33746 1.5625 6.33746C0.8125 7.51246 0.8125 9.48746 1.5625 10.6625C3.47083 13.6625 6.2125 15.3958 9.15417 15.3958Z" stroke="#858585" stroke-width="1.5" stroke-linecap="round" stroke-linejoin="round"/>
</svg>
