<svg width="20" height="20" viewBox="0 0 20 20" fill="none" xmlns="http://www.w3.org/2000/svg">
<path d="M19.6461 6.14234C19.6009 5.1173 19.4351 4.41266 19.1976 3.80201C18.9527 3.15386 18.5758 2.57358 18.0821 2.09117C17.5997 1.60126 17.0156 1.22056 16.3749 0.979454C15.7608 0.742037 15.0598 0.576222 14.0348 0.531075C13.0021 0.482009 12.6743 0.470703 10.0551 0.470703C7.43602 0.470703 7.10819 0.482009 6.07935 0.527231C5.05435 0.572453 4.34967 0.738344 3.73921 0.97561C3.09087 1.22056 2.51059 1.59742 2.02818 2.09117C1.53827 2.57354 1.15776 3.15766 0.916466 3.79831C0.679049 4.41266 0.513271 5.11353 0.468087 6.13849C0.419058 7.17118 0.407715 7.49901 0.407715 10.1181C0.407715 12.7373 0.419058 13.0651 0.464243 14.0939C0.509465 15.119 0.675356 15.8236 0.912811 16.4343C1.15776 17.0824 1.53827 17.6627 2.02818 18.1451C2.51059 18.635 3.09471 19.0157 3.73536 19.2568C4.34963 19.4942 5.0505 19.66 6.07569 19.7052C7.10435 19.7506 7.43236 19.7617 10.0515 19.7617C12.6706 19.7617 12.9984 19.7506 14.0273 19.7052C15.0523 19.66 15.757 19.4943 16.3674 19.2568C17.0086 19.0089 17.5909 18.6298 18.077 18.1437C18.5631 17.6577 18.9422 17.0754 19.1902 16.4343C19.4274 15.82 19.5934 15.1189 19.6385 14.0939C19.6838 13.0651 19.6951 12.7373 19.6951 10.1181C19.6951 7.49901 19.6912 7.17114 19.6461 6.14234ZM17.9089 14.0186C17.8673 14.9607 17.7091 15.4694 17.5772 15.8086C17.253 16.649 16.586 17.316 15.7456 17.6402C15.4065 17.7721 14.894 17.9303 13.9556 17.9717C12.9381 18.017 12.6329 18.0282 10.059 18.0282C7.48505 18.0282 7.17607 18.017 6.16222 17.9717C5.22009 17.9303 4.71134 17.7721 4.37217 17.6402C3.95397 17.4856 3.57332 17.2406 3.2643 16.9203C2.94397 16.6075 2.69902 16.2307 2.54443 15.8125C2.41253 15.4733 2.25429 14.9607 2.21295 14.0224C2.16758 13.0049 2.15642 12.6996 2.15642 10.1256C2.15642 7.55169 2.16758 7.24271 2.21295 6.22905C2.25429 5.28692 2.41253 4.77817 2.54443 4.439C2.69902 4.02062 2.94397 3.64003 3.26814 3.33094C3.58078 3.01062 3.95763 2.76566 4.37601 2.61126C4.71518 2.47937 5.22777 2.32109 6.16606 2.2796C7.18356 2.23437 7.48889 2.22307 10.0626 2.22307C12.6404 2.22307 12.9456 2.23437 13.9594 2.2796C14.9015 2.32113 15.4103 2.47933 15.7495 2.61123C16.1677 2.76566 16.5484 3.01062 16.8573 3.33094C17.1777 3.64377 17.4226 4.02062 17.5772 4.439C17.7091 4.77817 17.8673 5.29057 17.9088 6.22905C17.9541 7.24655 17.9654 7.55169 17.9654 10.1256C17.9654 12.6996 17.9541 13.0011 17.9089 14.0186Z" fill="#BABABA"/>
<path d="M10.0552 5.1624C7.31935 5.1624 5.09961 7.38198 5.09961 10.118C5.09961 12.854 7.31935 15.0736 10.0552 15.0736C12.7912 15.0736 15.0108 12.854 15.0108 10.118C15.0108 7.38198 12.7912 5.1624 10.0552 5.1624ZM10.0552 13.3326C8.28032 13.3326 6.84059 11.8931 6.84059 10.118C6.84059 8.34296 8.28032 6.90346 10.0552 6.90346C11.8302 6.90346 13.2698 8.34296 13.2698 10.118C13.2698 11.8931 11.8302 13.3326 10.0552 13.3326ZM16.3638 4.96643C16.3638 5.60535 15.8458 6.12337 15.2067 6.12337C14.5678 6.12337 14.0498 5.60535 14.0498 4.96643C14.0498 4.32744 14.5678 3.80957 15.2068 3.80957C15.8458 3.80957 16.3638 4.3274 16.3638 4.96643Z" fill="#BABABA"/>
</svg>
