<svg width="13" height="13" viewBox="0 0 13 13" fill="none" xmlns="http://www.w3.org/2000/svg">
<path d="M1.3 11.1429V1.2381H2.6V5.57143L4.225 4.64286L5.85 5.57143V1.2381H9.1V5.62095C9.3145 5.59 9.529 5.57143 9.75 5.57143C9.971 5.57143 10.1855 5.59 10.4 5.62095V1.2381C10.4 0.557143 9.815 0 9.1 0H1.3C0.585 0 0 0.557143 0 1.2381V11.1429C0 11.8238 0.585 12.381 1.3 12.381H6.019C5.746 12.0095 5.5315 11.5886 5.3885 11.1429H1.3ZM9.75 6.80952C7.956 6.80952 6.5 8.19619 6.5 9.90476C6.5 11.6133 7.956 13 9.75 13C11.544 13 13 11.6133 13 9.90476C13 8.19619 11.544 6.80952 9.75 6.80952ZM8.9375 11.4524V8.35714L11.5375 9.90476L8.9375 11.4524Z" fill="#B2B2B2"/>
</svg>
