<svg width="22" height="21" viewBox="0 0 22 21" fill="none" xmlns="http://www.w3.org/2000/svg">
<path d="M16.7532 15.0801L21.0362 19.3621L19.6212 20.7771L15.3392 16.4941C13.7459 17.7714 11.7642 18.466 9.72217 18.4631C4.75417 18.4631 0.722168 14.4311 0.722168 9.46313C0.722168 4.49513 4.75417 0.463135 9.72217 0.463135C14.6902 0.463135 18.7222 4.49513 18.7222 9.46313C18.7251 11.5051 18.0304 13.4869 16.7532 15.0801ZM14.7472 14.3381C16.016 13.0328 16.7247 11.2835 16.7222 9.46313C16.7222 5.59613 13.5892 2.46313 9.72217 2.46313C5.85517 2.46313 2.72217 5.59613 2.72217 9.46313C2.72217 13.3301 5.85517 16.4631 9.72217 16.4631C11.5425 16.4657 13.2919 15.757 14.5972 14.4881L14.7472 14.3381Z" fill="white"/>
</svg>
